<svg width="70" height="70" viewBox="0 0 70 70" fill="none" xmlns="http://www.w3.org/2000/svg">
<path d="M48.1249 31.7832V40.4687H39.4395C39.6903 38.2516 40.686 36.1852 42.2637 34.6074C43.8414 33.0297 45.9078 32.034 48.1249 31.7832Z" fill="#01FF66"/>
<path d="M55.3557 49.2461C53.9822 50.3471 52.3381 51.059 50.5954 51.3074C48.8526 51.5558 47.0752 51.3316 45.4487 50.6582C43.8223 49.9848 42.4065 48.8869 41.3494 47.4793C40.2923 46.0717 39.6327 44.406 39.4395 42.6562H48.7659L55.3557 49.2461Z" fill="#01FF66"/>
<path d="M50.3125 31.7832C52.0622 31.9764 53.7279 32.6361 55.1355 33.6932C56.5432 34.7503 57.641 36.166 58.3144 37.7925C58.9878 39.4189 59.2121 41.1964 58.9637 42.9391C58.7153 44.6819 58.0034 46.3259 56.9023 47.6994L50.3125 41.1096V31.7832Z" fill="#01FF66"/>
<path d="M10.9375 26.25V56.875C10.9375 57.7452 11.2832 58.5798 11.8986 59.1952C12.5139 59.8105 13.3485 60.1562 14.2188 60.1562H37.1875V66.7188H31.7188C31.4287 66.7188 31.1505 66.834 30.9454 67.0391C30.7402 67.2442 30.625 67.5224 30.625 67.8125C30.625 68.1026 30.7402 68.3808 30.9454 68.5859C31.1505 68.791 31.4287 68.9062 31.7188 68.9062H44.8438C45.1338 68.9062 45.412 68.791 45.6171 68.5859C45.8223 68.3808 45.9375 68.1026 45.9375 67.8125C45.9375 67.5224 45.8223 67.2442 45.6171 67.0391C45.412 66.834 45.1338 66.7188 44.8438 66.7188H39.375V60.1562H62.3438C63.214 60.1562 64.0486 59.8105 64.6639 59.1952C65.2793 58.5798 65.625 57.7452 65.625 56.875V26.25C65.625 25.3798 65.2793 24.5452 64.6639 23.9298C64.0486 23.3145 63.214 22.9688 62.3438 22.9688H14.2188C13.3485 22.9688 12.5139 23.3145 11.8986 23.9298C11.2832 24.5452 10.9375 25.3798 10.9375 26.25ZM37.1875 41.5625C37.1858 39.5844 37.6719 37.6364 38.6027 35.891C39.5334 34.1456 40.8802 32.6567 42.5237 31.5559C44.1673 30.4552 46.0568 29.7767 48.0251 29.5804C49.9935 29.3842 51.9798 29.6763 53.8083 30.4308C55.6368 31.1854 57.251 32.3792 58.5081 33.9065C59.7652 35.4337 60.6263 37.2474 61.0152 39.1869C61.4041 41.1263 61.3088 43.1318 60.7377 45.0256C60.1667 46.9195 59.1375 48.6433 57.7412 50.0445C57.7347 50.0522 57.7325 50.062 57.7248 50.0686C57.7172 50.0752 57.7084 50.0784 57.7008 50.085C56.0174 51.7636 53.8742 52.9054 51.542 53.3663C49.2098 53.8271 46.7934 53.5863 44.598 52.6742C42.4027 51.7621 40.527 50.2197 39.208 48.242C37.889 46.2642 37.1859 43.9398 37.1875 41.5625ZM15.3125 48.125C15.3125 47.8349 15.4277 47.5567 15.6329 47.3516C15.838 47.1465 16.1162 47.0312 16.4062 47.0312H31.7188C32.0088 47.0312 32.287 47.1465 32.4921 47.3516C32.6973 47.5567 32.8125 47.8349 32.8125 48.125C32.8125 48.4151 32.6973 48.6933 32.4921 48.8984C32.287 49.1035 32.0088 49.2188 31.7188 49.2188H16.4062C16.1162 49.2188 15.838 49.1035 15.6329 48.8984C15.4277 48.6933 15.3125 48.4151 15.3125 48.125ZM31.7188 42.6562H24.0625C23.7724 42.6562 23.4942 42.541 23.2891 42.3359C23.084 42.1308 22.9688 41.8526 22.9688 41.5625C22.9688 41.2724 23.084 40.9942 23.2891 40.7891C23.4942 40.584 23.7724 40.4688 24.0625 40.4688H31.7188C32.0088 40.4688 32.287 40.584 32.4921 40.7891C32.6973 40.9942 32.8125 41.2724 32.8125 41.5625C32.8125 41.8526 32.6973 42.1308 32.4921 42.3359C32.287 42.541 32.0088 42.6562 31.7188 42.6562ZM15.3125 35C15.3125 34.7099 15.4277 34.4317 15.6329 34.2266C15.838 34.0215 16.1162 33.9062 16.4062 33.9062H31.7188C32.0088 33.9062 32.287 34.0215 32.4921 34.2266C32.6973 34.4317 32.8125 34.7099 32.8125 35C32.8125 35.2901 32.6973 35.5683 32.4921 35.7734C32.287 35.9785 32.0088 36.0938 31.7188 36.0938H16.4062C16.1162 36.0938 15.838 35.9785 15.6329 35.7734C15.4277 35.5683 15.3125 35.2901 15.3125 35Z" fill="#01FF66"/>
<path d="M38.2812 1.09375H7.65625C6.78601 1.09375 5.95141 1.43945 5.33606 2.05481C4.7207 2.67016 4.375 3.50476 4.375 4.375V52.5C4.375 53.3702 4.7207 54.2048 5.33606 54.8202C5.95141 55.4355 6.78601 55.7812 7.65625 55.7812H38.2812C39.1515 55.7812 39.9861 55.4355 40.6014 54.8202C41.2168 54.2048 41.5625 53.3702 41.5625 52.5V4.375C41.5625 3.50476 41.2168 2.67016 40.6014 2.05481C39.9861 1.43945 39.1515 1.09375 38.2812 1.09375ZM39.375 52.5C39.375 52.7901 39.2598 53.0683 39.0546 53.2734C38.8495 53.4785 38.5713 53.5938 38.2812 53.5938H7.65625C7.36617 53.5938 7.08797 53.4785 6.88285 53.2734C6.67773 53.0683 6.5625 52.7901 6.5625 52.5V4.375C6.5625 4.08492 6.67773 3.80672 6.88285 3.6016C7.08797 3.39648 7.36617 3.28125 7.65625 3.28125H38.2812C38.5713 3.28125 38.8495 3.39648 39.0546 3.6016C39.2598 3.80672 39.375 4.08492 39.375 4.375V52.5Z" fill="black"/>
<path d="M16.4062 24.0625V17.5C16.4062 17.2099 16.291 16.9317 16.0859 16.7266C15.8808 16.5215 15.6026 16.4062 15.3125 16.4062H10.9375C10.6474 16.4062 10.3692 16.5215 10.1641 16.7266C9.95898 16.9317 9.84375 17.2099 9.84375 17.5V24.0625C9.84375 24.3526 9.95898 24.6308 10.1641 24.8359C10.3692 25.041 10.6474 25.1562 10.9375 25.1562H15.3125C15.6026 25.1562 15.8808 25.041 16.0859 24.8359C16.291 24.6308 16.4062 24.3526 16.4062 24.0625ZM14.2188 22.9688H12.0312V18.5938H14.2188V22.9688Z" fill="black"/>
<path d="M20.7812 25.1562H25.1562C25.4463 25.1562 25.7245 25.041 25.9296 24.8359C26.1348 24.6308 26.25 24.3526 26.25 24.0625V13.125C26.25 12.8349 26.1348 12.5567 25.9296 12.3516C25.7245 12.1465 25.4463 12.0312 25.1562 12.0312H20.7812C20.4912 12.0312 20.213 12.1465 20.0079 12.3516C19.8027 12.5567 19.6875 12.8349 19.6875 13.125V24.0625C19.6875 24.3526 19.8027 24.6308 20.0079 24.8359C20.213 25.041 20.4912 25.1562 20.7812 25.1562ZM21.875 14.2188H24.0625V22.9688H21.875V14.2188Z" fill="black"/>
<path d="M35 7.65625H30.625C30.3349 7.65625 30.0567 7.77148 29.8516 7.9766C29.6465 8.18172 29.5312 8.45992 29.5312 8.75V24.0625C29.5312 24.3526 29.6465 24.6308 29.8516 24.8359C30.0567 25.041 30.3349 25.1562 30.625 25.1562H35C35.2901 25.1562 35.5683 25.041 35.7734 24.8359C35.9785 24.6308 36.0938 24.3526 36.0938 24.0625V8.75C36.0938 8.45992 35.9785 8.18172 35.7734 7.9766C35.5683 7.77148 35.2901 7.65625 35 7.65625ZM33.9062 22.9688H31.7188V9.84375H33.9062V22.9688Z" fill="black"/>
<path d="M31.7188 31.7188H14.2188C13.9287 31.7188 13.6505 31.834 13.4454 32.0391C13.2402 32.2442 13.125 32.5224 13.125 32.8125C13.125 33.1026 13.2402 33.3808 13.4454 33.5859C13.6505 33.791 13.9287 33.9062 14.2188 33.9062H31.7188C32.0088 33.9062 32.287 33.791 32.4921 33.5859C32.6973 33.3808 32.8125 33.1026 32.8125 32.8125C32.8125 32.5224 32.6973 32.2442 32.4921 32.0391C32.287 31.834 32.0088 31.7188 31.7188 31.7188Z" fill="black"/>
<path d="M31.7188 38.2812H14.2188C13.9287 38.2812 13.6505 38.3965 13.4454 38.6016C13.2402 38.8067 13.125 39.0849 13.125 39.375C13.125 39.6651 13.2402 39.9433 13.4454 40.1484C13.6505 40.3535 13.9287 40.4688 14.2188 40.4688H31.7188C32.0088 40.4688 32.287 40.3535 32.4921 40.1484C32.6973 39.9433 32.8125 39.6651 32.8125 39.375C32.8125 39.0849 32.6973 38.8067 32.4921 38.6016C32.287 38.3965 32.0088 38.2812 31.7188 38.2812Z" fill="black"/>
<path d="M31.7188 44.8438H14.2188C13.9287 44.8438 13.6505 44.959 13.4454 45.1641C13.2402 45.3692 13.125 45.6474 13.125 45.9375C13.125 46.2276 13.2402 46.5058 13.4454 46.7109C13.6505 46.916 13.9287 47.0312 14.2188 47.0312H31.7188C32.0088 47.0312 32.287 46.916 32.4921 46.7109C32.6973 46.5058 32.8125 46.2276 32.8125 45.9375C32.8125 45.6474 32.6973 45.3692 32.4921 45.1641C32.287 44.959 32.0088 44.8438 31.7188 44.8438Z" fill="black"/>
</svg>
