<?xml version="1.0" encoding="utf-8"?>
<!-- Generator: Adobe Illustrator 16.0.0, SVG Export Plug-In . SVG Version: 6.00 Build 0)  -->
<!DOCTYPE svg PUBLIC "-//W3C//DTD SVG 1.1//EN" "http://www.w3.org/Graphics/SVG/1.1/DTD/svg11.dtd">
<svg version="1.1" id="Layer_1" xmlns="http://www.w3.org/2000/svg" xmlns:xlink="http://www.w3.org/1999/xlink" x="0px" y="0px"
	 width="60px" height="60px" viewBox="0 0 60 60" enable-background="new 0 0 60 60" xml:space="preserve">
<g>
	<path fill="#FFF753" d="M30.25,0.41c1.59,0,3.16,0.13,4.73,0.39c1.57,0.26,3.1,0.64,4.6,1.15c1.5,0.51,2.96,1.14,4.36,1.88
		c1.4,0.75,2.73,1.6,3.99,2.57c1.26,0.96,2.43,2.03,3.52,3.18c1.09,1.16,2.07,2.39,2.96,3.71c0.89,1.32,1.66,2.7,2.31,4.14
		c0.66,1.44,1.19,2.93,1.61,4.46l-14.04,3.8c-0.21-0.77-0.48-1.51-0.8-2.23c-0.33-0.72-0.72-1.41-1.16-2.07
		c-0.44-0.66-0.93-1.28-1.48-1.86c-0.54-0.58-1.13-1.11-1.76-1.59c-0.63-0.48-1.3-0.91-2-1.28c-0.7-0.37-1.43-0.69-2.18-0.94
		c-0.75-0.25-1.52-0.45-2.3-0.58c-0.78-0.13-1.57-0.19-2.37-0.19L30.25,0.41L30.25,0.41z"/>
	<path fill="#B1ED67" d="M57.92,20.51c0.49,1.51,0.85,3.05,1.09,4.62c0.24,1.57,0.35,3.15,0.33,4.73c-0.02,1.59-0.17,3.16-0.45,4.73
		c-0.28,1.56-0.68,3.09-1.21,4.59c-0.53,1.5-1.17,2.94-1.94,4.33c-0.76,1.39-1.64,2.71-2.62,3.96c-0.98,1.25-2.06,2.41-3.23,3.48
		c-1.17,1.07-2.42,2.04-3.75,2.91l-7.95-12.18c0.66-0.43,1.29-0.92,1.88-1.45c0.58-0.54,1.12-1.12,1.61-1.74
		c0.49-0.62,0.93-1.28,1.31-1.98c0.38-0.69,0.7-1.42,0.97-2.17c0.26-0.75,0.47-1.51,0.61-2.29c0.14-0.78,0.21-1.57,0.22-2.36
		c0.01-0.79-0.04-1.58-0.16-2.37c-0.12-0.78-0.3-1.55-0.55-2.31L57.92,20.51z"/>
	<path fill="#6BDC85" d="M47.35,53.03c-1.28,0.93-2.63,1.76-4.05,2.47c-1.42,0.71-2.89,1.3-4.4,1.78c-1.52,0.47-3.06,0.82-4.63,1.04
		c-1.57,0.22-3.15,0.31-4.74,0.27c-1.59-0.04-3.16-0.21-4.72-0.51c-1.56-0.3-3.08-0.72-4.57-1.27c-1.49-0.55-2.93-1.21-4.31-1.99
		c-1.38-0.78-2.69-1.67-3.93-2.67l9.13-11.32c0.62,0.5,1.27,0.94,1.96,1.33c0.69,0.39,1.41,0.72,2.15,1
		c0.75,0.27,1.51,0.48,2.29,0.63c0.78,0.15,1.57,0.23,2.36,0.25c0.79,0.02,1.58-0.02,2.37-0.13c0.79-0.11,1.56-0.28,2.32-0.52
		c0.76-0.23,1.49-0.53,2.2-0.89c0.71-0.36,1.39-0.77,2.03-1.23L47.35,53.03z"/>
	<path fill="#2AC69D" d="M13.16,53.03c-1.28-0.93-2.48-1.96-3.6-3.09c-1.11-1.13-2.13-2.34-3.05-3.64
		c-0.92-1.29-1.72-2.66-2.42-4.08s-1.27-2.9-1.72-4.42c-0.45-1.52-0.78-3.07-0.98-4.64C1.2,31.58,1.13,30,1.19,28.41
		c0.06-1.59,0.25-3.16,0.56-4.71c0.32-1.56,0.76-3.07,1.32-4.56l13.59,5.18c-0.28,0.74-0.5,1.5-0.66,2.28
		c-0.16,0.78-0.25,1.56-0.28,2.36c-0.03,0.79,0,1.58,0.1,2.37c0.1,0.79,0.26,1.56,0.49,2.32c0.23,0.76,0.51,1.5,0.86,2.21
		c0.35,0.71,0.75,1.4,1.21,2.04c0.46,0.65,0.97,1.25,1.52,1.82c0.56,0.56,1.16,1.08,1.8,1.55L13.16,53.03z"/>
	<path fill="#00ADA9" d="M2.59,20.51c0.47-1.45,1.05-2.86,1.75-4.22c0.69-1.36,1.49-2.66,2.39-3.89c0.9-1.23,1.89-2.39,2.96-3.47
		c1.08-1.08,2.24-2.07,3.47-2.97c1.23-0.9,2.53-1.69,3.89-2.38c1.36-0.69,2.77-1.27,4.22-1.75c1.45-0.47,2.93-0.83,4.44-1.07
		c1.51-0.24,3.02-0.36,4.55-0.36l0,14.54c-0.76,0-1.52,0.06-2.27,0.18c-0.75,0.12-1.49,0.3-2.22,0.53
		c-0.73,0.23-1.43,0.53-2.11,0.87c-0.68,0.35-1.33,0.74-1.95,1.19c-0.62,0.45-1.2,0.94-1.74,1.48c-0.54,0.54-1.03,1.12-1.48,1.74
		c-0.45,0.62-0.85,1.27-1.19,1.94c-0.35,0.68-0.64,1.38-0.87,2.11L2.59,20.51z"/>
</g>
</svg>
