<svg version="1.1" id="Layer_1" xmlns="http://www.w3.org/2000/svg" xmlns:xlink="http://www.w3.org/1999/xlink" x="0px" y="0px"
	 width="100%" viewBox="0 0 1413 434" enable-background="new 0 0 1413 434" xml:space="preserve">
<path fill="#FFFFFF" opacity="1.000000" stroke="none" 
	d="
M1414.000000,253.000000 
	C1414.000000,313.654816 1414.000000,374.309662 1414.000000,434.982239 
	C943.103760,434.982239 472.207581,434.982239 1.155676,434.982239 
	C1.155676,290.333435 1.155676,145.666748 1.155676,1.000000 
	C40.096085,1.000000 79.088333,1.000000 118.373917,1.399256 
	C112.844208,2.530259 106.961601,2.949950 101.208611,4.048482 
	C77.933838,8.492797 60.469082,20.750874 54.302433,44.271275 
	C50.744228,57.842720 49.835247,72.285233 49.190876,86.402191 
	C48.258617,106.826462 50.036041,127.368065 46.023468,147.653915 
	C43.521572,160.302444 38.854866,171.482681 25.509134,175.929535 
	C18.095432,178.399796 10.282264,179.671188 2.220851,181.584579 
	C2.220851,199.166992 2.220851,217.906631 2.220851,236.566208 
	C7.156466,237.060837 11.904238,237.299728 16.539400,238.151459 
	C17.859863,238.394089 19.698793,240.327332 19.838898,241.641113 
	C20.270760,245.690750 19.996401,249.815689 19.996401,253.623688 
	C24.917063,254.133209 29.177315,254.408783 33.381805,255.050003 
	C39.136780,255.927658 44.199909,257.617920 45.067322,264.752441 
	C46.162472,273.760193 48.586811,282.694397 48.818279,291.701935 
	C49.420853,315.150635 48.095070,338.679504 52.037041,361.958679 
	C54.226696,374.889557 58.182728,387.105804 68.038635,396.565887 
	C72.190002,400.550446 76.284767,404.600098 80.271751,408.748474 
	C87.207108,415.964569 94.368355,422.562531 104.142128,426.152679 
	C124.414909,433.599426 145.490128,433.559845 166.570679,434.027863 
	C170.157562,434.107513 170.019623,431.834320 170.015732,429.372131 
	C169.990616,413.538971 169.868790,397.703857 170.093307,381.873810 
	C170.152496,377.700470 168.593887,376.674927 164.811890,376.937164 
	C160.916214,377.207245 156.987244,376.997101 152.848175,376.997101 
	C152.848175,370.982452 152.848175,365.694733 152.848175,360.365448 
	C144.473389,359.955292 136.327179,359.556305 128.509232,359.173401 
	C127.924522,355.502960 127.200302,352.629395 127.049103,349.725952 
	C126.285072,335.054840 125.971687,320.354095 124.908905,305.706665 
	C124.036118,293.677643 123.157028,281.543823 120.791786,269.755188 
	C117.869858,255.191986 110.661079,242.625076 98.725189,233.187729 
	C95.724609,230.815262 92.864296,228.265396 89.766663,225.651199 
	C92.732735,223.464859 94.511566,222.346970 96.066574,220.975327 
	C104.687553,213.370956 112.365570,205.258026 117.188217,194.356552 
	C124.107010,178.716827 124.480637,162.139740 125.886642,145.700287 
	C126.830505,134.664429 126.623680,123.532425 127.019997,112.446602 
	C127.261353,105.695061 126.995750,98.831444 128.151459,92.227036 
	C130.247772,80.247620 132.932465,77.436844 143.731705,76.061050 
	C151.358505,75.089432 159.050018,74.591225 166.724518,74.049629 
	C169.072220,73.883934 171.036804,73.916672 171.026123,70.722366 
	C170.972076,54.556007 171.025131,38.389297 170.978363,22.222893 
	C170.970261,19.420935 169.879593,17.729868 166.533859,17.931547 
	C162.112366,18.198072 157.662689,17.997145 153.000000,17.997145 
	C153.000000,11.952662 153.000000,6.476331 153.000000,1.000000 
	C517.360168,1.000000 881.720398,1.000000 1246.538330,1.468654 
	C1246.996216,20.205791 1246.996216,38.474277 1246.996216,57.155411 
	C1252.613770,57.155411 1257.696045,57.155411 1262.995972,57.155411 
	C1262.995972,61.714352 1263.080933,65.859795 1262.964966,69.999603 
	C1262.891968,72.605690 1263.569214,73.993607 1266.553467,74.061157 
	C1272.977173,74.206558 1279.390625,74.805237 1285.814331,74.942993 
	C1288.676392,75.004372 1289.956909,75.701462 1290.064331,78.875931 
	C1290.578125,94.056931 1291.150513,109.240540 1292.052368,124.402382 
	C1292.772217,136.502991 1293.358765,148.670639 1295.178955,160.629761 
	C1296.938843,172.192062 1301.509155,182.967422 1309.446777,191.879959 
	C1314.795410,197.885513 1320.493042,203.580185 1325.319092,208.660858 
	C1318.604492,216.169464 1311.734009,222.828064 1306.085449,230.398529 
	C1296.533325,243.200409 1294.755859,258.717468 1293.101318,273.986267 
	C1291.896606,285.103790 1291.543457,296.321075 1291.031128,307.504028 
	C1290.538574,318.251251 1290.251709,329.009827 1290.021362,339.766571 
	C1289.843872,348.050354 1284.718872,355.562775 1276.818481,357.542236 
	C1271.488159,358.877716 1265.927612,359.452026 1260.432007,359.920227 
	C1256.037964,360.294617 1251.586426,359.995850 1247.322266,359.995850 
	C1247.322266,379.039185 1247.322266,397.444092 1247.322266,416.261230 
	C1252.723877,416.261230 1257.801025,416.261230 1262.995972,416.261230 
	C1262.995972,420.668579 1263.100830,424.662872 1262.965698,428.649048 
	C1262.837524,432.426239 1264.451172,434.209076 1268.257568,434.009796 
	C1275.011230,433.656250 1281.794312,433.615082 1288.514771,432.941498 
	C1299.527954,431.837708 1310.694702,431.196289 1321.442627,428.782623 
	C1335.573730,425.609070 1347.273193,418.226624 1355.338867,405.420929 
	C1363.812744,391.967133 1365.631348,376.871979 1366.805908,361.787933 
	C1368.027222,346.102661 1367.507690,330.288788 1368.066040,314.542358 
	C1368.391602,305.365326 1368.038818,295.878998 1370.273438,287.113647 
	C1375.088989,268.223969 1382.801636,256.743164 1403.057007,254.952698 
	C1406.733398,254.627716 1410.353760,253.667175 1414.000000,253.000000 
M935.244629,139.000000 
	C926.842773,139.332642 918.328613,138.913925 910.061523,140.148636 
	C890.675049,143.044067 876.097290,153.812241 867.162659,170.962509 
	C854.882385,194.534668 854.317322,219.552505 863.280945,244.142929 
	C869.694031,261.736481 882.440308,273.991058 900.829773,280.183014 
	C910.686768,283.501953 920.615051,283.502716 930.483337,282.755920 
	C938.380066,282.158386 946.686768,280.636383 953.814087,277.357056 
	C978.879822,265.824127 988.790039,244.066360 990.857666,218.002884 
	C991.452820,210.501022 990.604065,202.839401 989.941895,195.292740 
	C988.689514,181.018768 982.957214,168.554489 973.404419,157.957840 
	C963.462952,146.930161 950.810425,140.961716 935.244629,139.000000 
M833.000000,168.838104 
	C830.633301,150.906921 815.876343,141.769150 800.285645,141.111923 
	C787.320618,140.565399 774.314270,141.000000 761.326233,141.000000 
	C758.576477,141.000000 755.826721,141.000000 753.306641,141.000000 
	C753.306641,188.071167 753.306641,234.446640 753.306641,281.000000 
	C768.249207,281.000000 782.886047,280.933136 797.521973,281.020142 
	C810.364624,281.096497 821.341797,276.860596 830.125427,267.360443 
	C840.349121,256.302704 842.368652,243.124481 838.523315,229.238297 
	C834.814514,215.844788 824.690308,209.001816 811.078613,206.477631 
	C814.956787,203.977814 818.864319,201.995880 822.130798,199.251038 
	C831.282532,191.561050 833.730469,181.200165 833.000000,168.838104 
M655.454224,281.000000 
	C662.509399,279.997772 669.790161,279.785889 676.578308,277.848236 
	C698.805115,271.503662 714.143311,257.125824 721.746582,235.347275 
	C727.053772,220.145538 726.829468,204.224457 723.684021,188.599808 
	C721.547546,177.987534 717.402344,168.021072 709.533997,159.965286 
	C696.875916,147.005661 680.791870,142.366516 663.516907,141.126709 
	C653.735291,140.424698 643.862061,141.000000 634.030090,141.000000 
	C626.762146,141.000000 619.494202,141.000000 612.274902,141.000000 
	C612.274902,187.955856 612.274902,234.356659 612.274902,281.000000 
	C626.521301,281.000000 640.494080,281.000000 655.454224,281.000000 
M1102.044556,259.519806 
	C1102.701294,258.065643 1103.469116,256.650604 1103.997314,255.151154 
	C1108.151001,243.357819 1109.863770,231.427841 1108.179077,218.800690 
	C1106.748291,208.075333 1103.759644,198.212341 1096.552490,190.208374 
	C1088.524780,181.293243 1077.987183,178.885971 1066.107178,178.774719 
	C1051.872559,178.641373 1041.654907,184.758713 1033.002441,196.314835 
	C1033.002441,190.805939 1033.002441,186.094376 1033.002441,181.201080 
	C1027.207886,181.201080 1021.804321,181.201080 1016.351196,181.201080 
	C1016.351196,229.899582 1016.351196,278.405640 1016.351196,326.647095 
	C1022.116211,326.647095 1027.526733,326.647095 1033.349365,326.647095 
	C1033.349365,307.324463 1033.349365,288.353363 1033.349365,268.705261 
	C1040.912964,280.608704 1058.114136,286.202240 1072.732056,282.815796 
	C1086.085083,279.722382 1095.591919,272.168182 1102.044556,259.519806 
M581.000000,272.455933 
	C581.000000,252.291473 581.044617,232.126801 580.954529,211.962738 
	C580.940063,208.727097 580.742981,205.382126 579.914429,202.278824 
	C575.765137,186.737976 567.830017,180.920288 555.018799,179.360245 
	C539.972961,177.528076 524.554749,178.180328 511.218689,187.787109 
	C511.218689,192.908356 511.218689,198.338043 511.218689,204.549515 
	C513.984070,202.821930 516.308594,201.490799 518.506409,199.975861 
	C528.009949,193.425018 538.787476,191.783463 549.784546,193.180740 
	C560.322449,194.519653 565.961426,208.265686 563.384155,217.777069 
	C552.177429,219.198746 540.938538,220.134995 529.910461,222.197952 
	C522.720093,223.543030 515.718140,226.245712 510.063354,231.414597 
	C503.921509,237.028793 501.635193,244.444397 501.127930,252.273926 
	C500.627136,260.003235 502.410431,267.182434 507.815247,273.464783 
	C517.515076,284.739441 530.269104,283.924652 542.803711,282.481171 
	C551.689636,281.457825 558.390076,275.543671 564.252808,267.438538 
	C564.252808,272.661835 564.252808,276.745636 564.252808,280.693542 
	C570.016785,280.693542 575.421570,280.693542 581.000000,280.693542 
	C581.000000,278.073517 581.000000,275.756531 581.000000,272.455933 
M347.000000,236.500061 
	C346.331482,225.523026 346.460938,214.421646 344.775116,203.603134 
	C343.008698,192.267624 336.319153,182.973419 324.921600,180.290390 
	C307.722351,176.241623 291.508087,178.395584 279.837830,195.783218 
	C279.837830,190.050461 279.837830,185.646347 279.837830,181.262054 
	C274.067566,181.262054 268.664612,181.262054 263.234528,181.262054 
	C263.234528,214.575470 263.234528,247.626297 263.234528,280.766479 
	C268.873810,280.766479 274.275696,280.766479 280.000000,280.766479 
	C280.000000,261.921539 280.265991,243.302933 279.898865,224.696823 
	C279.683502,213.783112 283.506134,205.143555 291.519684,197.944489 
	C300.205994,190.140991 322.661804,189.476044 326.946289,206.963455 
	C328.399689,212.895615 329.724884,219.018845 329.863190,225.083176 
	C330.254150,242.225388 329.994415,259.382324 330.010162,276.533478 
	C330.011475,277.965729 330.156677,279.397888 330.228027,280.701660 
	C336.006470,280.701660 341.408569,280.701660 347.000000,280.701660 
	C347.000000,266.102783 347.000000,251.801407 347.000000,236.500061 
M1186.982300,235.472641 
	C1183.035522,232.985977 1179.266724,230.137100 1175.103760,228.089951 
	C1167.077393,224.142838 1158.686646,220.925735 1150.725586,216.860519 
	C1146.122314,214.509949 1142.650024,206.353531 1147.404785,199.939178 
	C1150.765747,195.405075 1155.147583,193.459290 1160.468262,193.008331 
	C1170.734741,192.138184 1180.453125,194.120331 1189.822266,199.407608 
	C1189.822266,193.309311 1189.822266,187.869400 1189.822266,182.049713 
	C1173.431030,178.165039 1157.493164,176.404205 1141.505005,184.696976 
	C1127.668579,191.873672 1123.951660,211.439789 1132.223877,222.829514 
	C1137.900391,230.645493 1146.389038,233.507568 1154.648438,237.050613 
	C1161.395264,239.944778 1168.767700,241.611130 1174.035034,247.471710 
	C1179.732056,253.810486 1178.403320,263.404388 1170.505371,266.696259 
	C1160.088013,271.038147 1149.490845,269.951904 1139.249146,265.621735 
	C1135.493774,264.034088 1131.978882,261.878174 1128.155029,259.877228 
	C1128.155029,266.159149 1128.155029,271.960022 1128.155029,277.423706 
	C1137.813354,283.312256 1148.262085,283.130890 1158.783813,283.073883 
	C1166.935425,283.029694 1174.182251,280.713287 1181.525269,277.248688 
	C1196.359741,270.249512 1200.149780,246.496216 1186.982300,235.472641 
M401.678528,132.996811 
	C390.876953,136.981873 383.421844,148.458923 383.040985,160.184372 
	C382.816650,167.090988 383.000000,174.010834 383.000000,181.297318 
	C376.894135,181.297318 371.482697,181.297318 366.347870,181.297318 
	C366.347870,185.768753 366.347870,189.840912 366.347870,194.296646 
	C372.104065,194.296646 377.512939,194.296646 383.277283,194.296646 
	C383.277283,223.418243 383.277283,252.143082 383.277283,280.672729 
	C389.065277,280.672729 394.471741,280.672729 400.237976,280.672729 
	C400.237976,251.622009 400.237976,222.897369 400.237976,193.784546 
	C408.020599,193.784546 415.431213,193.784546 422.693909,193.784546 
	C422.693909,189.314423 422.693909,185.242981 422.693909,181.000000 
	C418.742371,181.000000 415.095551,181.000000 411.448761,181.000000 
	C407.686829,181.000000 403.924896,181.000000 400.000031,181.000000 
	C400.000031,173.915695 399.846863,167.433655 400.034668,160.961517 
	C400.343018,150.335236 406.000366,144.862411 416.615204,145.079071 
	C419.931244,145.146774 423.228119,146.150726 426.998291,146.806931 
	C426.998291,142.589401 427.164246,138.302109 426.877319,134.045303 
	C426.808746,133.028152 425.216217,131.268890 424.348511,131.283340 
	C417.042389,131.405090 409.537628,129.373413 401.678528,132.996811 
M229.000000,209.500000 
	C229.000000,191.406631 229.000000,173.313263 229.000000,154.828918 
	C233.970749,154.828918 238.387924,154.828918 242.712860,154.828918 
	C242.712860,150.020813 242.712860,145.614929 242.712860,141.285538 
	C227.687180,141.285538 212.950287,141.285538 198.287811,141.285538 
	C198.287811,145.983047 198.287811,150.389694 198.287811,155.183929 
	C202.982925,155.183929 207.398788,155.183929 211.718323,155.183929 
	C211.718323,192.647141 211.718323,229.711578 211.718323,267.171021 
	C207.029373,267.171021 202.612411,267.171021 198.287109,267.171021 
	C198.287109,271.979126 198.287109,276.385040 198.287109,280.714478 
	C213.312805,280.714478 228.049698,280.714478 242.712189,280.714478 
	C242.712189,276.016968 242.712189,271.610321 242.712189,266.816071 
	C238.017090,266.816071 233.601242,266.816071 229.000000,266.816071 
	C229.000000,247.779144 229.000000,229.139572 229.000000,209.500000 
M456.000000,244.500000 
	C456.000000,238.340088 456.115112,232.177475 455.971161,226.020920 
	C455.787140,218.151093 458.099701,210.855560 462.339722,204.557571 
	C466.321625,198.642975 471.813232,193.991714 479.937286,195.005096 
	C483.867401,195.495346 487.790771,196.039749 491.998749,196.596909 
	C491.998749,191.849564 492.106842,187.033676 491.915527,182.229706 
	C491.872742,181.155609 490.759521,179.201599 490.173004,179.214355 
	C484.292450,179.342087 478.107635,178.759109 472.617981,180.406845 
	C464.803650,182.752350 460.083130,189.346420 455.888489,196.517075 
	C455.888489,191.377914 455.888489,186.238739 455.888489,181.334351 
	C449.917450,181.334351 444.512695,181.334351 439.299988,181.334351 
	C439.299988,214.716339 439.299988,247.763382 439.299988,280.701904 
	C445.007477,280.701904 450.408844,280.701904 456.000000,280.701904 
	C456.000000,268.769745 456.000000,257.134888 456.000000,244.500000 
z"/>
<path fill="#02202B" opacity="1.000000" stroke="none" 
	d="
M152.531342,1.000000 
	C153.000000,6.476331 153.000000,11.952662 153.000000,17.997145 
	C157.662689,17.997145 162.112366,18.198072 166.533859,17.931547 
	C169.879593,17.729868 170.970261,19.420935 170.978363,22.222893 
	C171.025131,38.389297 170.972076,54.556007 171.026123,70.722366 
	C171.036804,73.916672 169.072220,73.883934 166.724518,74.049629 
	C159.050018,74.591225 151.358505,75.089432 143.731705,76.061050 
	C132.932465,77.436844 130.247772,80.247620 128.151459,92.227036 
	C126.995750,98.831444 127.261353,105.695061 127.019997,112.446602 
	C126.623680,123.532425 126.830505,134.664429 125.886642,145.700287 
	C124.480637,162.139740 124.107010,178.716827 117.188217,194.356552 
	C112.365570,205.258026 104.687553,213.370956 96.066574,220.975327 
	C94.511566,222.346970 92.732735,223.464859 89.766663,225.651199 
	C92.864296,228.265396 95.724609,230.815262 98.725189,233.187729 
	C110.661079,242.625076 117.869858,255.191986 120.791786,269.755188 
	C123.157028,281.543823 124.036118,293.677643 124.908905,305.706665 
	C125.971687,320.354095 126.285072,335.054840 127.049103,349.725952 
	C127.200302,352.629395 127.924522,355.502960 128.509232,359.173401 
	C136.327179,359.556305 144.473389,359.955292 152.848175,360.365448 
	C152.848175,365.694733 152.848175,370.982452 152.848175,376.997101 
	C156.987244,376.997101 160.916214,377.207245 164.811890,376.937164 
	C168.593887,376.674927 170.152496,377.700470 170.093307,381.873810 
	C169.868790,397.703857 169.990616,413.538971 170.015732,429.372131 
	C170.019623,431.834320 170.157562,434.107513 166.570679,434.027863 
	C145.490128,433.559845 124.414909,433.599426 104.142128,426.152679 
	C94.368355,422.562531 87.207108,415.964569 80.271751,408.748474 
	C76.284767,404.600098 72.190002,400.550446 68.038635,396.565887 
	C58.182728,387.105804 54.226696,374.889557 52.037041,361.958679 
	C48.095070,338.679504 49.420853,315.150635 48.818279,291.701935 
	C48.586811,282.694397 46.162472,273.760193 45.067322,264.752441 
	C44.199909,257.617920 39.136780,255.927658 33.381805,255.050003 
	C29.177315,254.408783 24.917063,254.133209 19.996401,253.623688 
	C19.996401,249.815689 20.270760,245.690750 19.838898,241.641113 
	C19.698793,240.327332 17.859863,238.394089 16.539400,238.151459 
	C11.904238,237.299728 7.156466,237.060837 2.220851,236.566208 
	C2.220851,217.906631 2.220851,199.166992 2.220851,181.584579 
	C10.282264,179.671188 18.095432,178.399796 25.509134,175.929535 
	C38.854866,171.482681 43.521572,160.302444 46.023468,147.653915 
	C50.036041,127.368065 48.258617,106.826462 49.190876,86.402191 
	C49.835247,72.285233 50.744228,57.842720 54.302433,44.271275 
	C60.469082,20.750874 77.933838,8.492797 101.208611,4.048482 
	C106.961601,2.949950 112.844208,2.530259 118.833618,1.399256 
	C130.020889,1.000000 141.041794,1.000000 152.531342,1.000000 
M148.836121,378.509521 
	C148.836121,374.067108 148.836121,369.624695 148.836121,365.148102 
	C142.731674,364.734772 137.262268,364.399719 131.798615,363.987915 
	C115.262939,362.741638 106.037430,354.701355 105.746162,337.108307 
	C105.374565,314.662476 103.667557,292.218414 101.908813,269.822876 
	C100.668335,254.026611 96.946915,238.678360 85.616631,226.760498 
	C79.166290,219.975662 71.517212,214.330444 64.294212,208.073517 
	C65.008659,207.574783 66.279160,206.590637 67.639740,205.752777 
	C86.817291,193.943024 98.713982,177.003433 101.245697,154.620972 
	C103.299599,136.462769 103.693596,118.117218 104.839432,99.855736 
	C105.432541,90.403259 105.341858,80.836433 106.851868,71.530884 
	C108.767914,59.723026 113.451797,55.747368 125.381439,54.037151 
	C133.049271,52.937912 140.807922,52.472137 148.562759,51.718838 
	C148.562759,36.321419 148.562759,21.227934 148.562759,6.187762 
	C138.422882,4.297085 109.716156,6.319413 97.332947,9.726567 
	C72.699898,16.504181 57.800339,33.979565 55.982803,59.366299 
	C54.771358,76.287331 54.698074,93.286736 53.786644,110.233383 
	C53.126160,122.514069 52.489437,134.841949 50.841690,147.013351 
	C48.039883,167.709427 37.350273,179.502838 18.726995,183.645187 
	C14.909392,184.494339 10.981668,184.848373 7.003258,185.445862 
	C7.003258,193.443604 7.003258,201.100601 7.003258,208.757599 
	C7.003258,216.503876 7.003258,224.250153 7.003258,231.872818 
	C9.355904,232.249664 10.991639,232.657501 12.645635,232.754730 
	C38.101234,234.251419 49.027142,252.507156 51.814747,273.329620 
	C53.399181,285.164825 53.182713,297.237671 53.855198,309.199158 
	C54.863106,327.126709 54.893505,345.188995 57.245766,362.941406 
	C60.339977,386.293304 73.797424,402.177002 97.338829,407.017670 
	C111.253349,409.878815 125.662140,410.361938 139.860794,411.794128 
	C142.742523,412.084808 145.678650,411.836151 148.836075,411.836151 
	C148.836075,400.481842 148.836075,389.993774 148.836121,378.509521 
z"/>
<path fill="#03222A" opacity="1.000000" stroke="none" 
	d="
M1414.000000,252.531342 
	C1410.353760,253.667175 1406.733398,254.627716 1403.057007,254.952698 
	C1382.801636,256.743164 1375.088989,268.223969 1370.273438,287.113647 
	C1368.038818,295.878998 1368.391602,305.365326 1368.066040,314.542358 
	C1367.507690,330.288788 1368.027222,346.102661 1366.805908,361.787933 
	C1365.631348,376.871979 1363.812744,391.967133 1355.338867,405.420929 
	C1347.273193,418.226624 1335.573730,425.609070 1321.442627,428.782623 
	C1310.694702,431.196289 1299.527954,431.837708 1288.514771,432.941498 
	C1281.794312,433.615082 1275.011230,433.656250 1268.257568,434.009796 
	C1264.451172,434.209076 1262.837524,432.426239 1262.965698,428.649048 
	C1263.100830,424.662872 1262.995972,420.668579 1262.995972,416.261230 
	C1257.801025,416.261230 1252.723877,416.261230 1247.322266,416.261230 
	C1247.322266,397.444092 1247.322266,379.039185 1247.322266,359.995850 
	C1251.586426,359.995850 1256.037964,360.294617 1260.432007,359.920227 
	C1265.927612,359.452026 1271.488159,358.877716 1276.818481,357.542236 
	C1284.718872,355.562775 1289.843872,348.050354 1290.021362,339.766571 
	C1290.251709,329.009827 1290.538574,318.251251 1291.031128,307.504028 
	C1291.543457,296.321075 1291.896606,285.103790 1293.101318,273.986267 
	C1294.755859,258.717468 1296.533325,243.200409 1306.085449,230.398529 
	C1311.734009,222.828064 1318.604492,216.169464 1325.319092,208.660858 
	C1320.493042,203.580185 1314.795410,197.885513 1309.446777,191.879959 
	C1301.509155,182.967422 1296.938843,172.192062 1295.178955,160.629761 
	C1293.358765,148.670639 1292.772217,136.502991 1292.052368,124.402382 
	C1291.150513,109.240540 1290.578125,94.056931 1290.064331,78.875931 
	C1289.956909,75.701462 1288.676392,75.004372 1285.814331,74.942993 
	C1279.390625,74.805237 1272.977173,74.206558 1266.553467,74.061157 
	C1263.569214,73.993607 1262.891968,72.605690 1262.964966,69.999603 
	C1263.080933,65.859795 1262.995972,61.714352 1262.995972,57.155411 
	C1257.696045,57.155411 1252.613770,57.155411 1246.996216,57.155411 
	C1246.996216,38.474277 1246.996216,20.205791 1246.998047,1.468654 
	C1258.687622,1.000000 1270.375122,1.000000 1282.695435,1.396850 
	C1287.397827,2.194608 1291.501831,2.383983 1295.531128,3.035042 
	C1309.013550,5.213525 1321.437988,9.830029 1331.252808,19.789968 
	C1338.480957,27.125099 1345.756714,34.441643 1352.514893,42.198883 
	C1355.624146,45.767769 1357.761963,50.260555 1359.961304,54.529598 
	C1365.863403,65.985405 1366.019775,78.720078 1366.797729,91.059189 
	C1367.933350,109.070221 1367.189819,127.196449 1368.203125,145.219849 
	C1368.724243,154.489441 1371.165771,163.674301 1373.109375,172.818817 
	C1373.449463,174.418945 1375.414062,176.477768 1376.991455,176.871872 
	C1383.828125,178.580093 1390.799438,179.749557 1398.050903,181.179871 
	C1398.050903,185.598511 1398.050903,190.560364 1398.050903,196.074738 
	C1403.463501,196.728104 1408.731689,197.364059 1414.000000,198.000000 
	C1414.000000,216.020889 1414.000000,234.041794 1414.000000,252.531342 
M1263.015503,52.522537 
	C1267.475708,53.041828 1271.951172,53.455467 1276.392822,54.102551 
	C1285.474976,55.425690 1291.250122,60.512722 1292.969116,69.618385 
	C1293.922241,74.666969 1294.677124,79.798393 1294.946655,84.922707 
	C1296.083008,106.524979 1296.517456,128.175705 1298.162598,149.735901 
	C1299.389038,165.809631 1304.701416,180.806152 1316.375977,192.496780 
	C1322.430420,198.559555 1329.618408,203.490387 1335.763184,208.499542 
	C1329.822998,213.390076 1323.002319,218.203934 1317.142456,223.990799 
	C1303.398438,237.563843 1299.373779,255.245193 1298.067627,273.641052 
	C1296.476562,296.048828 1295.483032,318.498688 1294.169922,340.926758 
	C1293.409912,353.906189 1287.194092,360.958282 1274.181274,363.021729 
	C1266.843018,364.185394 1259.386841,364.606079 1251.821899,365.377960 
	C1251.821899,380.721741 1251.821899,395.980591 1251.821899,411.719330 
	C1268.882812,412.076508 1285.597412,411.456116 1302.044800,407.540680 
	C1325.220581,402.023529 1339.421997,387.516235 1342.938843,363.990051 
	C1345.118652,349.406891 1345.484131,334.539093 1346.387451,319.782104 
	C1347.403320,303.183899 1346.842651,286.378723 1349.274780,270.006256 
	C1352.174805,250.483826 1362.830078,236.614899 1382.116943,233.334351 
	C1385.679321,232.728424 1389.270874,232.294922 1392.874268,231.778229 
	C1392.874268,216.024902 1392.874268,200.605560 1392.874268,185.166870 
	C1390.149536,184.792557 1387.692993,184.457153 1385.236938,184.117355 
	C1366.806396,181.567535 1354.887817,171.747543 1350.977661,153.495789 
	C1348.313354,141.059113 1347.363159,128.179688 1346.545166,115.440544 
	C1345.308960,96.185989 1345.282959,76.851562 1343.948608,57.606129 
	C1342.649902,38.875637 1333.425903,24.559790 1317.031372,15.216533 
	C1303.275757,7.377194 1287.946655,6.262782 1272.605347,5.622316 
	C1265.720703,5.334893 1258.813965,5.573670 1251.894287,5.573670 
	C1251.894287,21.236788 1251.894287,36.478844 1251.894287,51.965851 
	C1255.494873,52.135269 1258.794189,52.290516 1263.015503,52.522537 
z"/>
<path fill="#FFFFFF" opacity="1.000000" stroke="none" 
	d="
M1414.000000,197.531342 
	C1408.731689,197.364059 1403.463501,196.728104 1398.050903,196.074738 
	C1398.050903,190.560364 1398.050903,185.598511 1398.050903,181.179871 
	C1390.799438,179.749557 1383.828125,178.580093 1376.991455,176.871872 
	C1375.414062,176.477768 1373.449463,174.418945 1373.109375,172.818817 
	C1371.165771,163.674301 1368.724243,154.489441 1368.203125,145.219849 
	C1367.189819,127.196449 1367.933350,109.070221 1366.797729,91.059189 
	C1366.019775,78.720078 1365.863403,65.985405 1359.961304,54.529598 
	C1357.761963,50.260555 1355.624146,45.767769 1352.514893,42.198883 
	C1345.756714,34.441643 1338.480957,27.125099 1331.252808,19.789968 
	C1321.437988,9.830029 1309.013550,5.213525 1295.531128,3.035042 
	C1291.501831,2.383983 1287.397827,2.194608 1283.164062,1.396850 
	C1326.608398,1.000000 1370.216675,1.000000 1414.000000,1.000000 
	C1414.000000,66.354126 1414.000000,131.708405 1414.000000,197.531342 
z"/>
<path fill="#000000" opacity="1.000000" stroke="none" 
	d="
M935.714050,139.000046 
	C950.810425,140.961716 963.462952,146.930161 973.404419,157.957840 
	C982.957214,168.554489 988.689514,181.018768 989.941895,195.292740 
	C990.604065,202.839401 991.452820,210.501022 990.857666,218.002884 
	C988.790039,244.066360 978.879822,265.824127 953.814087,277.357056 
	C946.686768,280.636383 938.380066,282.158386 930.483337,282.755920 
	C920.615051,283.502716 910.686768,283.501953 900.829773,280.183014 
	C882.440308,273.991058 869.694031,261.736481 863.280945,244.142929 
	C854.317322,219.552505 854.882385,194.534668 867.162659,170.962509 
	C876.097290,153.812241 890.675049,143.044067 910.061523,140.148636 
	C918.328613,138.913925 926.842773,139.332642 935.714050,139.000046 
M894.664856,165.029175 
	C883.168091,175.227295 877.587830,188.458038 876.120850,203.346527 
	C874.911682,215.618912 876.109924,227.954605 881.231812,239.278992 
	C886.067139,249.969666 893.750671,258.275146 904.753174,263.486572 
	C912.861206,267.326996 921.232178,267.354248 929.672974,266.919983 
	C945.186890,266.121948 957.215881,258.870148 964.843079,245.356491 
	C974.347900,228.516144 974.745361,210.289871 970.866394,191.922714 
	C968.253174,179.548981 962.129272,169.020691 951.279358,161.790833 
	C942.049133,155.640244 931.766418,154.351212 920.963745,154.953995 
	C911.283020,155.494171 902.629089,158.334137 894.664856,165.029175 
z"/>
<path fill="#000000" opacity="1.000000" stroke="none" 
	d="
M833.000000,169.300278 
	C833.730469,181.200165 831.282532,191.561050 822.130798,199.251038 
	C818.864319,201.995880 814.956787,203.977814 811.078613,206.477631 
	C824.690308,209.001816 834.814514,215.844788 838.523315,229.238297 
	C842.368652,243.124481 840.349121,256.302704 830.125427,267.360443 
	C821.341797,276.860596 810.364624,281.096497 797.521973,281.020142 
	C782.886047,280.933136 768.249207,281.000000 753.306641,281.000000 
	C753.306641,234.446640 753.306641,188.071167 753.306641,141.000000 
	C755.826721,141.000000 758.576477,141.000000 761.326233,141.000000 
	C774.314270,141.000000 787.320618,140.565399 800.285645,141.111923 
	C815.876343,141.769150 830.633301,150.906921 833.000000,169.300278 
M817.980530,254.215744 
	C826.125732,241.686707 821.735291,222.442780 805.513000,219.015152 
	C799.986389,217.847427 794.286743,217.420303 788.643250,216.905609 
	C782.492981,216.344711 776.316162,216.075073 770.330566,215.690033 
	C770.330566,233.070923 770.330566,249.472870 770.330566,266.479218 
	C778.585632,265.971680 786.481201,265.074036 794.372742,265.107483 
	C803.809387,265.147461 811.546326,262.081024 817.980530,254.215744 
M797.287903,199.004898 
	C807.237732,196.759171 812.510071,190.126434 814.800781,180.558044 
	C816.733948,172.483246 811.540833,161.430420 804.109375,159.086960 
	C793.056213,155.601440 781.631104,155.902435 770.282227,156.052765 
	C770.282227,171.308777 770.282227,186.043137 770.282227,201.716400 
	C779.244080,200.815460 787.837463,199.951584 797.287903,199.004898 
z"/>
<path fill="#000000" opacity="1.000000" stroke="none" 
	d="
M654.960510,281.000000 
	C640.494080,281.000000 626.521301,281.000000 612.274902,281.000000 
	C612.274902,234.356659 612.274902,187.955856 612.274902,141.000000 
	C619.494202,141.000000 626.762146,141.000000 634.030090,141.000000 
	C643.862061,141.000000 653.735291,140.424698 663.516907,141.126709 
	C680.791870,142.366516 696.875916,147.005661 709.533997,159.965286 
	C717.402344,168.021072 721.547546,177.987534 723.684021,188.599808 
	C726.829468,204.224457 727.053772,220.145538 721.746582,235.347275 
	C714.143311,257.125824 698.805115,271.503662 676.578308,277.848236 
	C669.790161,279.785889 662.509399,279.997772 654.960510,281.000000 
M629.056824,265.253418 
	C629.459778,265.492798 629.879272,265.965118 630.263306,265.937836 
	C643.654602,264.986023 657.369080,265.470612 670.347107,262.613831 
	C686.044922,259.158264 697.550903,249.009201 703.344238,233.273605 
	C708.071899,220.432831 708.129211,207.249634 705.851807,194.135284 
	C703.124817,178.432236 694.127747,166.789963 679.138245,161.185501 
	C663.113586,155.194000 646.119263,155.977203 629.003906,156.006638 
	C629.003906,192.421204 629.003906,228.353607 629.056824,265.253418 
z"/>
<path fill="#000000" opacity="1.000000" stroke="none" 
	d="
M1102.009033,259.905396 
	C1095.591919,272.168182 1086.085083,279.722382 1072.732056,282.815796 
	C1058.114136,286.202240 1040.912964,280.608704 1033.349365,268.705261 
	C1033.349365,288.353363 1033.349365,307.324463 1033.349365,326.647095 
	C1027.526733,326.647095 1022.116211,326.647095 1016.351196,326.647095 
	C1016.351196,278.405640 1016.351196,229.899582 1016.351196,181.201080 
	C1021.804321,181.201080 1027.207886,181.201080 1033.002441,181.201080 
	C1033.002441,186.094376 1033.002441,190.805939 1033.002441,196.314835 
	C1041.654907,184.758713 1051.872559,178.641373 1066.107178,178.774719 
	C1077.987183,178.885971 1088.524780,181.293243 1096.552490,190.208374 
	C1103.759644,198.212341 1106.748291,208.075333 1108.179077,218.800690 
	C1109.863770,231.427841 1108.151001,243.357819 1103.997314,255.151154 
	C1103.469116,256.650604 1102.701294,258.065643 1102.009033,259.905396 
M1090.004395,240.474136 
	C1090.336304,234.408035 1091.128296,228.325272 1090.909180,222.279129 
	C1090.368774,207.362030 1079.757568,191.700012 1061.699219,192.639435 
	C1049.722412,193.262482 1038.056274,202.568558 1035.051392,212.614120 
	C1031.401978,224.813843 1031.126953,237.683868 1034.373779,249.541794 
	C1039.517334,268.327515 1058.703247,274.214233 1074.809448,265.545074 
	C1084.138184,260.523926 1087.996338,251.351288 1090.004395,240.474136 
z"/>
<path fill="#000000" opacity="1.000000" stroke="none" 
	d="
M581.000000,272.947723 
	C581.000000,275.756531 581.000000,278.073517 581.000000,280.693542 
	C575.421570,280.693542 570.016785,280.693542 564.252808,280.693542 
	C564.252808,276.745636 564.252808,272.661835 564.252808,267.438538 
	C558.390076,275.543671 551.689636,281.457825 542.803711,282.481171 
	C530.269104,283.924652 517.515076,284.739441 507.815247,273.464783 
	C502.410431,267.182434 500.627136,260.003235 501.127930,252.273926 
	C501.635193,244.444397 503.921509,237.028793 510.063354,231.414597 
	C515.718140,226.245712 522.720093,223.543030 529.910461,222.197952 
	C540.938538,220.134995 552.177429,219.198746 563.384155,217.777069 
	C565.961426,208.265686 560.322449,194.519653 549.784546,193.180740 
	C538.787476,191.783463 528.009949,193.425018 518.506409,199.975861 
	C516.308594,201.490799 513.984070,202.821930 511.218689,204.549515 
	C511.218689,198.338043 511.218689,192.908356 511.218689,187.787109 
	C524.554749,178.180328 539.972961,177.528076 555.018799,179.360245 
	C567.830017,180.920288 575.765137,186.737976 579.914429,202.278824 
	C580.742981,205.382126 580.940063,208.727097 580.954529,211.962738 
	C581.044617,232.126801 581.000000,252.291473 581.000000,272.947723 
M532.935181,269.000000 
	C538.911011,268.804657 544.905273,269.743591 550.502136,266.089020 
	C563.087952,257.870941 565.344116,245.927811 563.517700,231.133102 
	C551.521790,233.454102 539.623474,235.477310 527.899231,238.239334 
	C525.277954,238.856873 522.594055,241.662598 521.099670,244.156418 
	C516.358887,252.067764 517.974731,265.656921 532.935181,269.000000 
z"/>
<path fill="#000000" opacity="1.000000" stroke="none" 
	d="
M347.000000,237.000046 
	C347.000000,251.801407 347.000000,266.102783 347.000000,280.701660 
	C341.408569,280.701660 336.006470,280.701660 330.228027,280.701660 
	C330.156677,279.397888 330.011475,277.965729 330.010162,276.533478 
	C329.994415,259.382324 330.254150,242.225388 329.863190,225.083176 
	C329.724884,219.018845 328.399689,212.895615 326.946289,206.963455 
	C322.661804,189.476044 300.205994,190.140991 291.519684,197.944489 
	C283.506134,205.143555 279.683502,213.783112 279.898865,224.696823 
	C280.265991,243.302933 280.000000,261.921539 280.000000,280.766479 
	C274.275696,280.766479 268.873810,280.766479 263.234528,280.766479 
	C263.234528,247.626297 263.234528,214.575470 263.234528,181.262054 
	C268.664612,181.262054 274.067566,181.262054 279.837830,181.262054 
	C279.837830,185.646347 279.837830,190.050461 279.837830,195.783218 
	C291.508087,178.395584 307.722351,176.241623 324.921600,180.290390 
	C336.319153,182.973419 343.008698,192.267624 344.775116,203.603134 
	C346.460938,214.421646 346.331482,225.523026 347.000000,237.000046 
z"/>
<path fill="#000000" opacity="1.000000" stroke="none" 
	d="
M1187.237793,235.734528 
	C1200.149780,246.496216 1196.359741,270.249512 1181.525269,277.248688 
	C1174.182251,280.713287 1166.935425,283.029694 1158.783813,283.073883 
	C1148.262085,283.130890 1137.813354,283.312256 1128.155029,277.423706 
	C1128.155029,271.960022 1128.155029,266.159149 1128.155029,259.877228 
	C1131.978882,261.878174 1135.493774,264.034088 1139.249146,265.621735 
	C1149.490845,269.951904 1160.088013,271.038147 1170.505371,266.696259 
	C1178.403320,263.404388 1179.732056,253.810486 1174.035034,247.471710 
	C1168.767700,241.611130 1161.395264,239.944778 1154.648438,237.050613 
	C1146.389038,233.507568 1137.900391,230.645493 1132.223877,222.829514 
	C1123.951660,211.439789 1127.668579,191.873672 1141.505005,184.696976 
	C1157.493164,176.404205 1173.431030,178.165039 1189.822266,182.049713 
	C1189.822266,187.869400 1189.822266,193.309311 1189.822266,199.407608 
	C1180.453125,194.120331 1170.734741,192.138184 1160.468262,193.008331 
	C1155.147583,193.459290 1150.765747,195.405075 1147.404785,199.939178 
	C1142.650024,206.353531 1146.122314,214.509949 1150.725586,216.860519 
	C1158.686646,220.925735 1167.077393,224.142838 1175.103760,228.089951 
	C1179.266724,230.137100 1183.035522,232.985977 1187.237793,235.734528 
z"/>
<path fill="#000000" opacity="1.000000" stroke="none" 
	d="
M402.089050,132.970703 
	C409.537628,129.373413 417.042389,131.405090 424.348511,131.283340 
	C425.216217,131.268890 426.808746,133.028152 426.877319,134.045303 
	C427.164246,138.302109 426.998291,142.589401 426.998291,146.806931 
	C423.228119,146.150726 419.931244,145.146774 416.615204,145.079071 
	C406.000366,144.862411 400.343018,150.335236 400.034668,160.961517 
	C399.846863,167.433655 400.000031,173.915695 400.000031,181.000000 
	C403.924896,181.000000 407.686829,181.000000 411.448761,181.000000 
	C415.095551,181.000000 418.742371,181.000000 422.693909,181.000000 
	C422.693909,185.242981 422.693909,189.314423 422.693909,193.784546 
	C415.431213,193.784546 408.020599,193.784546 400.237976,193.784546 
	C400.237976,222.897369 400.237976,251.622009 400.237976,280.672729 
	C394.471741,280.672729 389.065277,280.672729 383.277283,280.672729 
	C383.277283,252.143082 383.277283,223.418243 383.277283,194.296646 
	C377.512939,194.296646 372.104065,194.296646 366.347870,194.296646 
	C366.347870,189.840912 366.347870,185.768753 366.347870,181.297318 
	C371.482697,181.297318 376.894135,181.297318 383.000000,181.297318 
	C383.000000,174.010834 382.816650,167.090988 383.040985,160.184372 
	C383.421844,148.458923 390.876953,136.981873 402.089050,132.970703 
z"/>
<path fill="#000000" opacity="1.000000" stroke="none" 
	d="
M229.000000,210.000000 
	C229.000000,229.139572 229.000000,247.779144 229.000000,266.816071 
	C233.601242,266.816071 238.017090,266.816071 242.712189,266.816071 
	C242.712189,271.610321 242.712189,276.016968 242.712189,280.714478 
	C228.049698,280.714478 213.312805,280.714478 198.287109,280.714478 
	C198.287109,276.385040 198.287109,271.979126 198.287109,267.171021 
	C202.612411,267.171021 207.029373,267.171021 211.718323,267.171021 
	C211.718323,229.711578 211.718323,192.647141 211.718323,155.183929 
	C207.398788,155.183929 202.982925,155.183929 198.287811,155.183929 
	C198.287811,150.389694 198.287811,145.983047 198.287811,141.285538 
	C212.950287,141.285538 227.687180,141.285538 242.712860,141.285538 
	C242.712860,145.614929 242.712860,150.020813 242.712860,154.828918 
	C238.387924,154.828918 233.970749,154.828918 229.000000,154.828918 
	C229.000000,173.313263 229.000000,191.406631 229.000000,210.000000 
z"/>
<path fill="#000000" opacity="1.000000" stroke="none" 
	d="
M456.000000,245.000000 
	C456.000000,257.134888 456.000000,268.769745 456.000000,280.701904 
	C450.408844,280.701904 445.007477,280.701904 439.299988,280.701904 
	C439.299988,247.763382 439.299988,214.716339 439.299988,181.334351 
	C444.512695,181.334351 449.917450,181.334351 455.888489,181.334351 
	C455.888489,186.238739 455.888489,191.377914 455.888489,196.517075 
	C460.083130,189.346420 464.803650,182.752350 472.617981,180.406845 
	C478.107635,178.759109 484.292450,179.342087 490.173004,179.214355 
	C490.759521,179.201599 491.872742,181.155609 491.915527,182.229706 
	C492.106842,187.033676 491.998749,191.849564 491.998749,196.596909 
	C487.790771,196.039749 483.867401,195.495346 479.937286,195.005096 
	C471.813232,193.991714 466.321625,198.642975 462.339722,204.557571 
	C458.099701,210.855560 455.787140,218.151093 455.971161,226.020920 
	C456.115112,232.177475 456.000000,238.340088 456.000000,245.000000 
z"/>
<path fill="#B0FE05" opacity="1.000000" stroke="none" 
	d="
M148.836090,379.007629 
	C148.836075,389.993774 148.836075,400.481842 148.836075,411.836151 
	C145.678650,411.836151 142.742523,412.084808 139.860794,411.794128 
	C125.662140,410.361938 111.253349,409.878815 97.338829,407.017670 
	C73.797424,402.177002 60.339977,386.293304 57.245766,362.941406 
	C54.893505,345.188995 54.863106,327.126709 53.855198,309.199158 
	C53.182713,297.237671 53.399181,285.164825 51.814747,273.329620 
	C49.027142,252.507156 38.101234,234.251419 12.645635,232.754730 
	C10.991639,232.657501 9.355904,232.249664 7.003258,231.872818 
	C7.003258,224.250153 7.003258,216.503876 7.003258,208.757599 
	C7.003258,201.100601 7.003258,193.443604 7.003258,185.445862 
	C10.981668,184.848373 14.909392,184.494339 18.726995,183.645187 
	C37.350273,179.502838 48.039883,167.709427 50.841690,147.013351 
	C52.489437,134.841949 53.126160,122.514069 53.786644,110.233383 
	C54.698074,93.286736 54.771358,76.287331 55.982803,59.366299 
	C57.800339,33.979565 72.699898,16.504181 97.332947,9.726567 
	C109.716156,6.319413 138.422882,4.297085 148.562759,6.187762 
	C148.562759,21.227934 148.562759,36.321419 148.562759,51.718838 
	C140.807922,52.472137 133.049271,52.937912 125.381439,54.037151 
	C113.451797,55.747368 108.767914,59.723026 106.851868,71.530884 
	C105.341858,80.836433 105.432541,90.403259 104.839432,99.855736 
	C103.693596,118.117218 103.299599,136.462769 101.245697,154.620972 
	C98.713982,177.003433 86.817291,193.943024 67.639740,205.752777 
	C66.279160,206.590637 65.008659,207.574783 64.294212,208.073517 
	C71.517212,214.330444 79.166290,219.975662 85.616631,226.760498 
	C96.946915,238.678360 100.668335,254.026611 101.908813,269.822876 
	C103.667557,292.218414 105.374565,314.662476 105.746162,337.108307 
	C106.037430,354.701355 115.262939,362.741638 131.798615,363.987915 
	C137.262268,364.399719 142.731674,364.734772 148.836121,365.148102 
	C148.836121,369.624695 148.836121,374.067108 148.836090,379.007629 
z"/>
<path fill="#B0FE05" opacity="1.000000" stroke="none" 
	d="
M1262.554565,52.484146 
	C1258.794189,52.290516 1255.494873,52.135269 1251.894287,51.965851 
	C1251.894287,36.478844 1251.894287,21.236788 1251.894287,5.573670 
	C1258.813965,5.573670 1265.720703,5.334893 1272.605347,5.622316 
	C1287.946655,6.262782 1303.275757,7.377194 1317.031372,15.216533 
	C1333.425903,24.559790 1342.649902,38.875637 1343.948608,57.606129 
	C1345.282959,76.851562 1345.308960,96.185989 1346.545166,115.440544 
	C1347.363159,128.179688 1348.313354,141.059113 1350.977661,153.495789 
	C1354.887817,171.747543 1366.806396,181.567535 1385.236938,184.117355 
	C1387.692993,184.457153 1390.149536,184.792557 1392.874268,185.166870 
	C1392.874268,200.605560 1392.874268,216.024902 1392.874268,231.778229 
	C1389.270874,232.294922 1385.679321,232.728424 1382.116943,233.334351 
	C1362.830078,236.614899 1352.174805,250.483826 1349.274780,270.006256 
	C1346.842651,286.378723 1347.403320,303.183899 1346.387451,319.782104 
	C1345.484131,334.539093 1345.118652,349.406891 1342.938843,363.990051 
	C1339.421997,387.516235 1325.220581,402.023529 1302.044800,407.540680 
	C1285.597412,411.456116 1268.882812,412.076508 1251.821899,411.719330 
	C1251.821899,395.980591 1251.821899,380.721741 1251.821899,365.377960 
	C1259.386841,364.606079 1266.843018,364.185394 1274.181274,363.021729 
	C1287.194092,360.958282 1293.409912,353.906189 1294.169922,340.926758 
	C1295.483032,318.498688 1296.476562,296.048828 1298.067627,273.641052 
	C1299.373779,255.245193 1303.398438,237.563843 1317.142456,223.990799 
	C1323.002319,218.203934 1329.822998,213.390076 1335.763184,208.499542 
	C1329.618408,203.490387 1322.430420,198.559555 1316.375977,192.496780 
	C1304.701416,180.806152 1299.389038,165.809631 1298.162598,149.735901 
	C1296.517456,128.175705 1296.083008,106.524979 1294.946655,84.922707 
	C1294.677124,79.798393 1293.922241,74.666969 1292.969116,69.618385 
	C1291.250122,60.512722 1285.474976,55.425690 1276.392822,54.102551 
	C1271.951172,53.455467 1267.475708,53.041828 1262.554565,52.484146 
z"/>
<path fill="#FFFFFF" opacity="1.000000" stroke="none" 
	d="
M895.029907,164.997162 
	C902.629089,158.334137 911.283020,155.494171 920.963745,154.953995 
	C931.766418,154.351212 942.049133,155.640244 951.279358,161.790833 
	C962.129272,169.020691 968.253174,179.548981 970.866394,191.922714 
	C974.745361,210.289871 974.347900,228.516144 964.843079,245.356491 
	C957.215881,258.870148 945.186890,266.121948 929.672974,266.919983 
	C921.232178,267.354248 912.861206,267.326996 904.753174,263.486572 
	C893.750671,258.275146 886.067139,249.969666 881.231812,239.278992 
	C876.109924,227.954605 874.911682,215.618912 876.120850,203.346527 
	C877.587830,188.458038 883.168091,175.227295 895.029907,164.997162 
z"/>
<path fill="#FFFFFF" opacity="1.000000" stroke="none" 
	d="
M817.810608,254.551575 
	C811.546326,262.081024 803.809387,265.147461 794.372742,265.107483 
	C786.481201,265.074036 778.585632,265.971680 770.330566,266.479218 
	C770.330566,249.472870 770.330566,233.070923 770.330566,215.690033 
	C776.316162,216.075073 782.492981,216.344711 788.643250,216.905609 
	C794.286743,217.420303 799.986389,217.847427 805.513000,219.015152 
	C821.735291,222.442780 826.125732,241.686707 817.810608,254.551575 
z"/>
<path fill="#FFFFFF" opacity="1.000000" stroke="none" 
	d="
M796.859375,199.046295 
	C787.837463,199.951584 779.244080,200.815460 770.282227,201.716400 
	C770.282227,186.043137 770.282227,171.308777 770.282227,156.052765 
	C781.631104,155.902435 793.056213,155.601440 804.109375,159.086960 
	C811.540833,161.430420 816.733948,172.483246 814.800781,180.558044 
	C812.510071,190.126434 807.237732,196.759171 796.859375,199.046295 
z"/>
<path fill="#FFFFFF" opacity="1.000000" stroke="none" 
	d="
M629.030396,264.769714 
	C629.003906,228.353607 629.003906,192.421204 629.003906,156.006638 
	C646.119263,155.977203 663.113586,155.194000 679.138245,161.185501 
	C694.127747,166.789963 703.124817,178.432236 705.851807,194.135284 
	C708.129211,207.249634 708.071899,220.432831 703.344238,233.273605 
	C697.550903,249.009201 686.044922,259.158264 670.347107,262.613831 
	C657.369080,265.470612 643.654602,264.986023 630.263306,265.937836 
	C629.879272,265.965118 629.459778,265.492798 629.030396,264.769714 
z"/>
<path fill="#FFFFFF" opacity="1.000000" stroke="none" 
	d="
M1090.002197,240.916672 
	C1087.996338,251.351288 1084.138184,260.523926 1074.809448,265.545074 
	C1058.703247,274.214233 1039.517334,268.327515 1034.373779,249.541794 
	C1031.126953,237.683868 1031.401978,224.813843 1035.051392,212.614120 
	C1038.056274,202.568558 1049.722412,193.262482 1061.699219,192.639435 
	C1079.757568,191.700012 1090.368774,207.362030 1090.909180,222.279129 
	C1091.128296,228.325272 1090.336304,234.408035 1090.002197,240.916672 
z"/>
<path fill="#FFFFFF" opacity="1.000000" stroke="none" 
	d="
M532.490967,268.999634 
	C517.974731,265.656921 516.358887,252.067764 521.099670,244.156418 
	C522.594055,241.662598 525.277954,238.856873 527.899231,238.239334 
	C539.623474,235.477310 551.521790,233.454102 563.517700,231.133102 
	C565.344116,245.927811 563.087952,257.870941 550.502136,266.089020 
	C544.905273,269.743591 538.911011,268.804657 532.490967,268.999634 
z"/>
</svg>