<svg class="icon" xmlns="http://www.w3.org/2000/svg" xmlns:xlink="http://www.w3.org/1999/xlink" width="77" height="77" viewBox="0 0 77 77">
  <defs>
    <filter id="Ellipse_1238" x="0" y="0" width="77" height="77" filterUnits="userSpaceOnUse">
      <feOffset dy="5" input="SourceAlpha"/>
      <feGaussianBlur stdDeviation="5" result="blur"/>
      <feFlood flood-color="#00ac41" flood-opacity="0.161"/>
      <feComposite operator="in" in2="blur"/>
      <feComposite in="SourceGraphic"/>
    </filter>
  </defs>
  <g id="Hiring-Solutions" transform="translate(-704 -1055)">
    <g transform="matrix(1, 0, 0, 1, 704, 1055)" filter="url(#Ellipse_1238)">
      <circle id="Ellipse_1238-2" data-name="Ellipse 1238" cx="29" cy="29" r="29" transform="translate(15 10)" fill="#00ac41" opacity="0.1"/>
    </g>
    <svg version="1.0" xmlns="http://www.w3.org/2000/svg"
 width="225.000000pt" height="225.000000pt" viewBox="0 0 225.000000 225.000000"
 preserveAspectRatio="xMidYMid meet">

<g transform="translate(0.000000,225.000000) scale(0.100000,-0.100000)" fill="#00ac41" stroke="none">
<path d="M1050 1789 c-66 -13 -144 -55 -195 -105 -47 -45 -105 -151 -105 -191
0 -16 -10 -27 -33 -37 -51 -21 -77 -60 -77 -115 0 -94 70 -152 160 -134 25 4
44 13 43 18 -1 6 -10 30 -20 55 -26 68 -24 202 4 262 30 66 96 133 162 165 46
22 70 27 136 28 71 0 88 -4 147 -33 36 -18 81 -49 99 -69 94 -107 111 -265 37
-348 -40 -47 -50 -44 -32 8 8 23 15 72 16 109 0 160 -110 272 -267 272 -155 0
-267 -113 -267 -269 0 -104 51 -232 125 -312 95 -104 196 -99 297 15 58 65
115 94 190 97 93 3 140 50 140 139 0 48 -32 99 -70 111 -12 4 -24 22 -31 48
-17 64 -46 115 -97 169 -59 63 -110 93 -192 112 -72 17 -103 18 -170 5z m186
-214 c91 -53 118 -162 73 -292 l-22 -61 -53 -7 c-41 -5 -59 -3 -76 9 -12 9
-30 16 -40 16 -26 0 -58 -36 -58 -65 0 -56 70 -85 111 -44 13 13 30 19 47 17
27 -3 26 -3 -17 -35 -76 -57 -143 -37 -205 59 -124 196 -94 375 72 429 43 14
120 2 168 -26z"/>
<path d="M809 984 c-61 -18 -132 -82 -163 -147 -33 -68 -62 -297 -43 -336 24
-50 29 -51 522 -51 493 0 498 1 522 51 19 39 -10 268 -43 336 -32 67 -102 129
-167 148 -98 29 -103 27 -213 -92 l-98 -106 -101 107 c-111 118 -118 121 -216
90z m200 -160 c57 -63 110 -114 116 -114 12 0 70 58 186 183 42 46 46 48 83
42 58 -11 127 -63 154 -117 29 -57 59 -273 40 -295 -8 -10 -100 -13 -457 -13
-245 0 -452 4 -460 9 -21 13 2 230 30 289 33 68 121 131 184 130 13 0 58 -41
124 -114z"/>
</g>
</svg>
  </g>
</svg>
